<svg width="112" height="47" viewBox="0 0 112 47" fill="none" xmlns="http://www.w3.org/2000/svg">
<path d="M15.7471 13.5518V14.6748C15.7471 16.0094 15.5802 17.2057 15.2466 18.2637C14.9129 19.3216 14.4328 20.2209 13.8062 20.9614C13.1795 21.702 12.4268 22.2676 11.5479 22.6582C10.6771 23.0488 9.70052 23.2441 8.61816 23.2441C7.56836 23.2441 6.604 23.0488 5.7251 22.6582C4.85433 22.2676 4.09749 21.702 3.45459 20.9614C2.81982 20.2209 2.32747 19.3216 1.97754 18.2637C1.6276 17.2057 1.45264 16.0094 1.45264 14.6748V13.5518C1.45264 12.2171 1.62354 11.0249 1.96533 9.9751C2.31527 8.91715 2.80762 8.0179 3.44238 7.27734C4.07715 6.52865 4.82992 5.95898 5.70068 5.56836C6.57959 5.17773 7.54395 4.98242 8.59375 4.98242C9.67611 4.98242 10.6527 5.17773 11.5234 5.56836C12.4023 5.95898 13.1551 6.52865 13.7817 7.27734C14.4165 8.0179 14.9007 8.91715 15.2344 9.9751C15.5762 11.0249 15.7471 12.2171 15.7471 13.5518ZM13.4155 14.6748V13.5273C13.4155 12.4694 13.3057 11.5335 13.0859 10.7197C12.8743 9.90592 12.561 9.22233 12.146 8.66895C11.731 8.11556 11.2223 7.69645 10.6201 7.41162C10.026 7.12679 9.35059 6.98438 8.59375 6.98438C7.86133 6.98438 7.19808 7.12679 6.604 7.41162C6.01807 7.69645 5.51351 8.11556 5.09033 8.66895C4.67529 9.22233 4.35384 9.90592 4.12598 10.7197C3.89811 11.5335 3.78418 12.4694 3.78418 13.5273V14.6748C3.78418 15.7409 3.89811 16.6849 4.12598 17.5068C4.35384 18.3206 4.67936 19.0083 5.10254 19.5698C5.53385 20.1232 6.04248 20.5423 6.62842 20.8271C7.22249 21.112 7.88574 21.2544 8.61816 21.2544C9.38314 21.2544 10.0627 21.112 10.6567 20.8271C11.2508 20.5423 11.7513 20.1232 12.1582 19.5698C12.5732 19.0083 12.8866 18.3206 13.0981 17.5068C13.3097 16.6849 13.4155 15.7409 13.4155 14.6748ZM21.1914 12.6118V23H18.9331V9.79199H21.0693L21.1914 12.6118ZM20.6543 15.8955L19.7144 15.8589C19.7225 14.9556 19.8568 14.1214 20.1172 13.3564C20.3776 12.5833 20.7438 11.9119 21.2158 11.3423C21.6878 10.7726 22.2493 10.3332 22.9004 10.0239C23.5596 9.70654 24.2879 9.54785 25.0854 9.54785C25.7365 9.54785 26.3224 9.63737 26.8433 9.81641C27.3641 9.9873 27.8076 10.264 28.1738 10.6465C28.5482 11.029 28.833 11.5254 29.0283 12.1357C29.2236 12.738 29.3213 13.4744 29.3213 14.3452V23H27.0508V14.3208C27.0508 13.6291 26.9491 13.0757 26.7456 12.6606C26.5422 12.2375 26.2451 11.9323 25.8545 11.7451C25.4639 11.5498 24.9837 11.4521 24.4141 11.4521C23.8525 11.4521 23.3398 11.5701 22.876 11.8062C22.4202 12.0422 22.0256 12.3677 21.6919 12.7827C21.3664 13.1978 21.11 13.6738 20.9229 14.2109C20.7438 14.7399 20.6543 15.3014 20.6543 15.8955ZM38.2324 23.2441C37.3128 23.2441 36.4787 23.0895 35.73 22.7803C34.9894 22.4629 34.3506 22.0194 33.8135 21.4497C33.2845 20.88 32.8776 20.2046 32.5928 19.4233C32.3079 18.6421 32.1655 17.7876 32.1655 16.8599V16.3472C32.1655 15.2729 32.3242 14.3167 32.6416 13.4785C32.959 12.6322 33.3903 11.916 33.9355 11.3301C34.4808 10.7441 35.0993 10.3006 35.791 9.99951C36.4827 9.6984 37.1989 9.54785 37.9395 9.54785C38.8835 9.54785 39.6973 9.71061 40.3809 10.0361C41.0726 10.3617 41.6382 10.8174 42.0776 11.4033C42.5171 11.9811 42.8426 12.6647 43.0542 13.4541C43.2658 14.2354 43.3716 15.0898 43.3716 16.0176V17.0308H33.5083V15.1875H41.1133V15.0166C41.0807 14.4307 40.9587 13.861 40.7471 13.3076C40.5436 12.7542 40.2181 12.2985 39.7705 11.9404C39.3229 11.5824 38.7126 11.4033 37.9395 11.4033C37.4268 11.4033 36.9548 11.5132 36.5234 11.7329C36.0921 11.9445 35.7218 12.2619 35.4126 12.6851C35.1034 13.1082 34.8633 13.625 34.6924 14.2354C34.5215 14.8457 34.436 15.5496 34.436 16.3472V16.8599C34.436 17.4865 34.5215 18.0765 34.6924 18.6299C34.8714 19.1751 35.1278 19.6553 35.4614 20.0703C35.8032 20.4854 36.2142 20.8109 36.6943 21.0469C37.1826 21.2829 37.736 21.4009 38.3545 21.4009C39.152 21.4009 39.8275 21.2381 40.3809 20.9126C40.9342 20.5871 41.4185 20.1517 41.8335 19.6064L43.2007 20.6929C42.9159 21.1242 42.5537 21.5352 42.1143 21.9258C41.6748 22.3164 41.1336 22.6338 40.4907 22.8779C39.856 23.1221 39.1032 23.2441 38.2324 23.2441Z" fill="#4540DB"/>
<path d="M59.1064 16.0298H54.3579V14.1133H59.1064C60.026 14.1133 60.7707 13.9668 61.3403 13.6738C61.91 13.3809 62.325 12.974 62.5854 12.4531C62.854 11.9323 62.9883 11.3382 62.9883 10.6709C62.9883 10.0605 62.854 9.48682 62.5854 8.94971C62.325 8.4126 61.91 7.98128 61.3403 7.65576C60.7707 7.3221 60.026 7.15527 59.1064 7.15527H54.9072V23H52.5513V5.22656H59.1064C60.4492 5.22656 61.5845 5.4585 62.5122 5.92236C63.4399 6.38623 64.1439 7.02913 64.624 7.85107C65.1042 8.66488 65.3442 9.59668 65.3442 10.6465C65.3442 11.7858 65.1042 12.7583 64.624 13.564C64.1439 14.3696 63.4399 14.984 62.5122 15.4072C61.5845 15.8223 60.4492 16.0298 59.1064 16.0298ZM70.4346 9.79199V23H68.1641V9.79199H70.4346ZM67.9932 6.28857C67.9932 5.92236 68.103 5.61312 68.3228 5.36084C68.5506 5.10856 68.8843 4.98242 69.3237 4.98242C69.755 4.98242 70.0846 5.10856 70.3125 5.36084C70.5485 5.61312 70.6665 5.92236 70.6665 6.28857C70.6665 6.63851 70.5485 6.93962 70.3125 7.19189C70.0846 7.43604 69.755 7.55811 69.3237 7.55811C68.8843 7.55811 68.5506 7.43604 68.3228 7.19189C68.103 6.93962 67.9932 6.63851 67.9932 6.28857ZM79.541 23.2441C78.6214 23.2441 77.7873 23.0895 77.0386 22.7803C76.298 22.4629 75.6592 22.0194 75.1221 21.4497C74.5931 20.88 74.1862 20.2046 73.9014 19.4233C73.6165 18.6421 73.4741 17.7876 73.4741 16.8599V16.3472C73.4741 15.2729 73.6328 14.3167 73.9502 13.4785C74.2676 12.6322 74.6989 11.916 75.2441 11.3301C75.7894 10.7441 76.4079 10.3006 77.0996 9.99951C77.7913 9.6984 78.5075 9.54785 79.248 9.54785C80.1921 9.54785 81.0059 9.71061 81.6895 10.0361C82.3812 10.3617 82.9468 10.8174 83.3862 11.4033C83.8257 11.9811 84.1512 12.6647 84.3628 13.4541C84.5744 14.2354 84.6802 15.0898 84.6802 16.0176V17.0308H74.8169V15.1875H82.4219V15.0166C82.3893 14.4307 82.2673 13.861 82.0557 13.3076C81.8522 12.7542 81.5267 12.2985 81.0791 11.9404C80.6315 11.5824 80.0212 11.4033 79.248 11.4033C78.7354 11.4033 78.2633 11.5132 77.832 11.7329C77.4007 11.9445 77.0304 12.2619 76.7212 12.6851C76.4119 13.1082 76.1719 13.625 76.001 14.2354C75.8301 14.8457 75.7446 15.5496 75.7446 16.3472V16.8599C75.7446 17.4865 75.8301 18.0765 76.001 18.6299C76.18 19.1751 76.4364 19.6553 76.77 20.0703C77.1118 20.4854 77.5228 20.8109 78.0029 21.0469C78.4912 21.2829 79.0446 21.4009 79.6631 21.4009C80.4606 21.4009 81.1361 21.2381 81.6895 20.9126C82.2428 20.5871 82.7271 20.1517 83.1421 19.6064L84.5093 20.6929C84.2244 21.1242 83.8623 21.5352 83.4229 21.9258C82.9834 22.3164 82.4422 22.6338 81.7993 22.8779C81.1646 23.1221 80.4118 23.2441 79.541 23.2441ZM92.6025 21.3887C93.1396 21.3887 93.6361 21.2788 94.0918 21.0591C94.5475 20.8394 94.9219 20.5382 95.2148 20.1558C95.5078 19.7651 95.6746 19.3216 95.7153 18.8252H97.8638C97.8231 19.6064 97.5586 20.3348 97.0703 21.0103C96.5902 21.6776 95.9595 22.2188 95.1782 22.6338C94.397 23.0407 93.5384 23.2441 92.6025 23.2441C91.6097 23.2441 90.743 23.0692 90.0024 22.7192C89.27 22.3693 88.6597 21.8892 88.1714 21.2788C87.6912 20.6685 87.3291 19.9686 87.085 19.1792C86.849 18.3817 86.731 17.5394 86.731 16.6523V16.1396C86.731 15.2526 86.849 14.4144 87.085 13.625C87.3291 12.8275 87.6912 12.1235 88.1714 11.5132C88.6597 10.9028 89.27 10.4227 90.0024 10.0728C90.743 9.72282 91.6097 9.54785 92.6025 9.54785C93.6361 9.54785 94.5394 9.75944 95.3125 10.1826C96.0856 10.5977 96.6919 11.1673 97.1313 11.8916C97.5789 12.6077 97.8231 13.4215 97.8638 14.333H95.7153C95.6746 13.7878 95.52 13.2954 95.2515 12.856C94.991 12.4165 94.633 12.0666 94.1772 11.8062C93.7297 11.5376 93.2048 11.4033 92.6025 11.4033C91.9108 11.4033 91.3289 11.5417 90.8569 11.8184C90.3931 12.0869 90.0228 12.4531 89.7461 12.917C89.4775 13.3727 89.2822 13.8813 89.1602 14.4429C89.0462 14.9963 88.9893 15.5618 88.9893 16.1396V16.6523C88.9893 17.2301 89.0462 17.7998 89.1602 18.3613C89.2741 18.9229 89.4653 19.4315 89.7339 19.8872C90.0106 20.3429 90.3809 20.7091 90.8447 20.9858C91.3167 21.2544 91.9027 21.3887 92.6025 21.3887ZM105.884 23.2441C104.964 23.2441 104.13 23.0895 103.381 22.7803C102.641 22.4629 102.002 22.0194 101.465 21.4497C100.936 20.88 100.529 20.2046 100.244 19.4233C99.9593 18.6421 99.8169 17.7876 99.8169 16.8599V16.3472C99.8169 15.2729 99.9756 14.3167 100.293 13.4785C100.61 12.6322 101.042 11.916 101.587 11.3301C102.132 10.7441 102.751 10.3006 103.442 9.99951C104.134 9.6984 104.85 9.54785 105.591 9.54785C106.535 9.54785 107.349 9.71061 108.032 10.0361C108.724 10.3617 109.29 10.8174 109.729 11.4033C110.168 11.9811 110.494 12.6647 110.706 13.4541C110.917 14.2354 111.023 15.0898 111.023 16.0176V17.0308H101.16V15.1875H108.765V15.0166C108.732 14.4307 108.61 13.861 108.398 13.3076C108.195 12.7542 107.869 12.2985 107.422 11.9404C106.974 11.5824 106.364 11.4033 105.591 11.4033C105.078 11.4033 104.606 11.5132 104.175 11.7329C103.743 11.9445 103.373 12.2619 103.064 12.6851C102.755 13.1082 102.515 13.625 102.344 14.2354C102.173 14.8457 102.087 15.5496 102.087 16.3472V16.8599C102.087 17.4865 102.173 18.0765 102.344 18.6299C102.523 19.1751 102.779 19.6553 103.113 20.0703C103.455 20.4854 103.866 20.8109 104.346 21.0469C104.834 21.2829 105.387 21.4009 106.006 21.4009C106.803 21.4009 107.479 21.2381 108.032 20.9126C108.586 20.5871 109.07 20.1517 109.485 19.6064L110.852 20.6929C110.567 21.1242 110.205 21.5352 109.766 21.9258C109.326 22.3164 108.785 22.6338 108.142 22.8779C107.507 23.1221 106.755 23.2441 105.884 23.2441Z" fill="black"/>
<path d="M6 29C6 29 38.4273 46.6934 60.8009 45.9789C81.0942 45.3309 110 29 110 29" stroke="url(#paint0_linear_412_648)" stroke-width="2" stroke-linejoin="round"/>
<defs>
<linearGradient id="paint0_linear_412_648" x1="110" y1="29" x2="0.884351" y2="26.8303" gradientUnits="userSpaceOnUse">
<stop offset="0.119831" stop-color="#4540DB"/>
<stop offset="1"/>
</linearGradient>
</defs>
</svg>
